<svg xmlns="http://www.w3.org/2000/svg" viewBox="0 0 90 90"><defs><style>.cls-1{fill:#292727;}</style></defs><g id="Layer_2" data-name="Layer 2"><g id="Layer_1-2" data-name="Layer 1"><path class="cls-1" d="M64.09,90H25.83a1.27,1.27,0,0,1,0-2.51H64.09a1.27,1.27,0,0,1,0,2.51Z"/><path class="cls-1" d="M64.09,85.83A1.19,1.19,0,0,1,63,84.57V73.68a1.1,1.1,0,1,1,2.18,0V84.57A1.19,1.19,0,0,1,64.09,85.83Z"/><path class="cls-1" d="M25.83,85.83a1.19,1.19,0,0,1-1.09-1.26V73.68a1.1,1.1,0,1,1,2.18,0V84.57A1.19,1.19,0,0,1,25.83,85.83Z"/><path class="cls-1" d="M48.3,41.86H41.71l.95-5.32a4.33,4.33,0,0,1-1-2.85A3.68,3.68,0,0,1,45,29.76a3.68,3.68,0,0,1,3.37,3.93,4.37,4.37,0,0,1-1,2.85Zm-3.91-2.51h1.23L45,35.88ZM45,32.27a1.32,1.32,0,0,0-1.19,1.42,1.47,1.47,0,0,0,.6,1.25l.59.4.59-.4a1.47,1.47,0,0,0,.6-1.25A1.32,1.32,0,0,0,45,32.27Z"/><path class="cls-1" d="M84,74.94H6.06C2.72,74.94,0,71.8,0,68V7C0,3.14,2.72,0,6.06,0H84c3.34,0,6,3.14,6,7V68C90,71.8,87.29,74.94,84,74.94ZM6.06,2.51c-2.14,0-3.88,2-3.88,4.48V68a4.21,4.21,0,0,0,3.88,4.47H84c2.14,0,3.87-2,3.87-4.47V7c0-2.47-1.73-4.48-3.87-4.48Z"/><path class="cls-1" d="M48.3,41.86H41.71l.95-5.32a4.33,4.33,0,0,1-1-2.85A3.68,3.68,0,0,1,45,29.76a3.68,3.68,0,0,1,3.37,3.93,4.37,4.37,0,0,1-1,2.85Zm-3.91-2.51h1.23L45,35.88ZM45,32.27a1.32,1.32,0,0,0-1.19,1.42,1.47,1.47,0,0,0,.6,1.25l.59.4.59-.4a1.47,1.47,0,0,0,.6-1.25A1.32,1.32,0,0,0,45,32.27Z"/><path class="cls-1" d="M86.71,65.7H3.29V4.34H86.71ZM5.47,63.19H84.53V6.86H5.47Z"/><path class="cls-1" d="M75.92,90H14a3.38,3.38,0,0,1,0-6.69H75.92a3.38,3.38,0,0,1,0,6.69ZM14,85.82a.84.84,0,0,0,0,1.66H75.92a.84.84,0,0,0,0-1.66Z"/><path class="cls-1" d="M48.3,41.86H41.71l.95-5.32a4.33,4.33,0,0,1-1-2.85A3.68,3.68,0,0,1,45,29.76a3.68,3.68,0,0,1,3.37,3.93,4.37,4.37,0,0,1-1,2.85Zm-3.91-2.51h1.23L45,35.88ZM45,32.27a1.32,1.32,0,0,0-1.19,1.42,1.47,1.47,0,0,0,.6,1.25l.59.4.59-.4a1.47,1.47,0,0,0,.6-1.25A1.32,1.32,0,0,0,45,32.27Z"/><path class="cls-1" d="M45,62l-.32-.12c-22-8-18.57-43.65-18.53-44l.12-1.21,1.05.1a15.76,15.76,0,0,0,1.68.09c9.54,0,15.08-8.22,15.14-8.3L45,7.26l.86,1.32c.06.08,5.6,8.3,15.14,8.3h0c.56,0,1.12,0,1.68-.09l1.05-.1.12,1.21c0,.36,3.42,36-18.53,44ZM28.22,19.37c-.36,6-.95,33.22,16.78,40,17.75-6.81,17.15-34,16.79-40l-.78,0c-8.46,0-14-5.63-16-8.13-2,2.5-7.54,8.13-16,8.13Z"/><path class="cls-1" d="M48.3,41.86H41.71l.95-5.32a4.33,4.33,0,0,1-1-2.85A3.68,3.68,0,0,1,45,29.76a3.68,3.68,0,0,1,3.37,3.93,4.37,4.37,0,0,1-1,2.85Zm-3.91-2.51h1.23L45,35.88ZM45,32.27a1.32,1.32,0,0,0-1.19,1.42,1.47,1.47,0,0,0,.6,1.25l.59.4.59-.4a1.47,1.47,0,0,0,.6-1.25A1.32,1.32,0,0,0,45,32.27Z"/><path class="cls-1" d="M45,56.88l-.35-.14C29,50.42,29.78,23.94,29.82,22.81l.05-1.2h1c7.21,0,13.32-6.06,13.38-6.12l.71-.72.72.72c.06.06,6.18,6.12,13.38,6.12h1l0,1.2c0,1.13.87,27.61-14.83,33.93ZM32,24.09c0,5,.94,24.88,13,30.13C57.1,49,58,29.12,58,24.09c-6.12-.44-11.19-4.42-13-6C43.18,19.66,38.1,23.65,32,24.09Z"/><path class="cls-1" d="M51.35,45.83H38.66a2.41,2.41,0,0,1-2.2-2.56V28.93a2.4,2.4,0,0,1,2.2-2.56H51.35a2.4,2.4,0,0,1,2.2,2.56V43.27A2.41,2.41,0,0,1,51.35,45.83ZM38.66,28.88l0,14.39,12.7,0,0-14.39Z"/><path class="cls-1" d="M48.3,41.86H41.71l.95-5.32a4.33,4.33,0,0,1-1-2.85A3.68,3.68,0,0,1,45,29.76a3.68,3.68,0,0,1,3.37,3.93,4.37,4.37,0,0,1-1,2.85Zm-3.91-2.51h1.23L45,35.88ZM45,32.27a1.32,1.32,0,0,0-1.19,1.42,1.47,1.47,0,0,0,.6,1.25l.59.4.59-.4a1.47,1.47,0,0,0,.6-1.25A1.32,1.32,0,0,0,45,32.27Z"/><path class="cls-1" d="M47.7,28.88a1.18,1.18,0,0,1-1.09-1.26v-3.1a1.63,1.63,0,1,0-3.21,0v3.1a1.1,1.1,0,1,1-2.18,0v-3.1c0-2.44,1.7-4.43,3.78-4.43s3.79,2,3.79,4.43v3.1A1.18,1.18,0,0,1,47.7,28.88Z"/><path class="cls-1" d="M48.3,41.86H41.71l.95-5.32a4.33,4.33,0,0,1-1-2.85A3.68,3.68,0,0,1,45,29.76a3.68,3.68,0,0,1,3.37,3.93,4.37,4.37,0,0,1-1,2.85Zm-3.91-2.51h1.23L45,35.88ZM45,32.27a1.32,1.32,0,0,0-1.19,1.42,1.47,1.47,0,0,0,.6,1.25l.59.4.59-.4a1.47,1.47,0,0,0,.6-1.25A1.32,1.32,0,0,0,45,32.27Z"/></g></g></svg>