<svg xmlns="http://www.w3.org/2000/svg" viewBox="0 0 244 463"><defs><style>.cls-1{fill:#fefefe;}.cls-2{fill:#36315f;}.cls-3{fill:#3d3867;}.cls-4{fill:#443f6f;}.cls-5{fill:#2f2a58;}.cls-6{fill:#282350;}.cls-7{fill:#f2effb;}</style></defs><g id="Layer_2" data-name="Layer 2"><g id="Layer_1-2" data-name="Layer 1"><path class="cls-1" d="M.1,224.08Q.1,114.28,0,4.48C0,.84.78.14,4.36.15Q122.16.33,240,.31c1.3,0,3.1-1.13,4,.93a23,23,0,0,1-2.48.1c-22.22-1.53-41,5.81-57,21.3-28.32,27.45-56.95,54.57-85.41,81.87Q77,125.73,55,147.1C42.31,158.3,30.06,170,18.44,182.22,9.22,192,4,203.9,1.83,217.19,1.46,219.48,2.1,222.16.1,224.08Z"/><path class="cls-1" d="M223,462.9q-109.32,0-218.64.1C.73,463,0,462.24,0,458.65Q.2,345.37.1,232.07c1.56.53,1,1.92,1.11,3,1.58,13.31,6.08,25.49,14.52,36A236.94,236.94,0,0,0,37,293.33c14.83,16.34,30.24,32.13,45.77,47.81,14.63,16.12,29.83,31.7,45.16,47.15,11.61,12.95,23.78,25.35,36.05,37.67,5.8,6.09,11.38,12.43,17.47,18.23,8.8,8.39,19.44,13.53,31.24,16.4C216.07,461.42,219.79,461,223,462.9Z"/><path class="cls-2" d="M37,293.33A236.94,236.94,0,0,1,15.73,271C7.29,260.51,2.79,248.33,1.21,235c-.12-1,.45-2.42-1.11-3v-7a14.62,14.62,0,0,0,2-.05q28.1-4.49,56.17-9c17.26-2.73,34.54-5.38,51.8-8.13,16.12-2.57,32.22-5.22,48.34-7.82s32.19-5.4,48.35-7.69c12.41-1.75,24.65-4.66,37.22-5.29v70.94c-14.05,2.07-28.11,4-42.13,6.22-16.15,2.5-32.26,5.19-48.4,7.79-16,2.56-31.93,5.15-47.91,7.65C87.6,282.53,69.6,285,51.73,288.2,46.69,289.09,40.42,287.55,37,293.33Z"/><path class="cls-3" d="M244,187.11c-12.57.63-24.81,3.54-37.22,5.29-16.16,2.29-32.24,5.09-48.35,7.69s-32.22,5.25-48.34,7.82c-17.26,2.75-34.54,5.4-51.8,8.13q-28.09,4.47-56.17,9a14.62,14.62,0,0,1-2,.05v-1c2-1.92,1.36-4.6,1.73-6.89C4,203.9,9.22,192,18.44,182.22,30.06,170,42.31,158.3,55,147.1c5.55-.77,11.11-1.44,16.65-2.32,15.79-2.5,31.56-5.1,47.35-7.63q24.41-3.92,48.82-7.78c11.57-1.8,23.17-3.4,34.73-5.26,13.83-2.22,27.63-4.63,41.45-7Z"/><path class="cls-4" d="M244,117.16c-13.82,2.32-27.62,4.73-41.45,7-11.56,1.86-23.16,3.46-34.73,5.26q-24.42,3.82-48.82,7.78c-15.79,2.53-31.56,5.13-47.35,7.63-5.54.88-11.1,1.55-16.65,2.32Q77,125.8,99.12,104.51c28.46-27.3,57.09-54.42,85.41-81.87,16-15.49,34.74-22.83,57-21.3a23,23,0,0,0,2.48-.1Z"/><path class="cls-5" d="M37,293.33c3.47-5.78,9.74-4.24,14.78-5.13,17.87-3.18,35.87-5.67,53.8-8.49,16-2.5,31.95-5.09,47.91-7.65,16.14-2.6,32.25-5.29,48.4-7.79,14-2.18,28.08-4.15,42.13-6.22v56a53.1,53.1,0,0,0-8.87.87c-22.32,3.56-44.68,6.83-67,10.29-25.1,3.9-50.2,7.82-75.25,12-3.51.58-7.81,0-10.12,4C67.19,325.46,51.78,309.67,37,293.33Z"/><path class="cls-6" d="M82.72,341.14c2.31-4,6.61-3.42,10.12-4,25-4.15,50.15-8.07,75.25-12,22.33-3.46,44.69-6.73,67-10.29A53.1,53.1,0,0,1,244,314v51c-6.47,1.27-13,2.18-19.52,3.17-29.32,4.48-58.61,9.23-87.9,13.92-3.88.62-8,1.06-8.67,6.23C112.55,372.84,97.35,357.26,82.72,341.14Z"/><path class="cls-6" d="M127.88,388.29c.66-5.17,4.79-5.61,8.67-6.23,29.29-4.69,58.58-9.44,87.9-13.92,6.52-1,13.05-1.9,19.52-3.17v48c-13.86,2.11-27.74,4-41.55,6.4-12.83,2.22-25.83,3.44-38.49,6.62C151.66,413.64,139.49,401.24,127.88,388.29Z"/><path class="cls-6" d="M163.93,426c12.66-3.18,25.66-4.4,38.49-6.62,13.81-2.39,27.69-4.29,41.55-6.4v48c-4.08.21-8.16.34-12,2h-9c-3.19-1.9-6.91-1.48-10.34-2.31-11.8-2.87-22.44-8-31.24-16.4C175.31,438.39,169.73,432.05,163.93,426Z"/><path class="cls-7" d="M232,462.9c3.84-1.66,7.92-1.79,12-2-.08,1,.55,2.2-1.51,2.06C239,462.73,235.47,462.9,232,462.9Z"/></g></g></svg>